<?xml version="1.0" encoding="utf-8"?>
<!-- Generator: Adobe Illustrator 28.1.0, SVG Export Plug-In . SVG Version: 6.00 Build 0)  -->
<svg version="1.1" id="Layer_1" xmlns="http://www.w3.org/2000/svg" xmlns:xlink="http://www.w3.org/1999/xlink" x="0px" y="0px"
	 viewBox="0 0 31.5 31.5" style="enable-background:new 0 0 31.5 31.5;" xml:space="preserve">
<style type="text/css">
	.st0{fill:#2A2A2A;}
</style>
<g>
	<path class="st0" d="M23.1,6.6l1.8,1.8c-3.4,3.4-3.6,8.7-0.7,12.3l5.1-5.1c-0.8-1.3-1.4-2.8-1.5-4.3c-0.2-1.7,0-3.4,0.6-5.1
		c0.5-1.3,1.3-2.6,2.4-3.7l-1.8-1.8c-1.1,1.1-2.3,1.9-3.7,2.4c-1.6,0.6-3.4,0.8-5.1,0.6c-1.5-0.2-3-0.7-4.3-1.5l-5.1,5.1
		C14.4,10.2,19.7,10,23.1,6.6z"/>
	<path class="st0" d="M13.1,16.6l1.8,1.8c-3.4,3.4-3.6,8.7-0.7,12.3l5.1-5.1c-0.8-1.3-1.4-2.8-1.5-4.3c-0.2-1.7,0-3.4,0.6-5.1
		c0.5-1.3,1.3-2.6,2.4-3.7l-1.8-1.8c-1.1,1.1-2.3,1.9-3.7,2.4c-1.6,0.6-3.4,0.8-5.1,0.6c-1.5-0.2-3-0.7-4.3-1.5l-5.1,5.1
		C4.4,20.2,9.7,20,13.1,16.6z"/>
</g>
</svg>
